# xmcd
#
# Track frame offsets:
#	150
#	13940
#	29080
#	46520
#	60988
#	77129
#	91362
#	106571
#	118763
#	131123
#	141986
#	158705
#	171851
#	188874
#	199812
#	215820
#	232441
#	249178
#	260613
#	271664
#	287825
#	305330
#	325456
#	338566
#
# Disc length: 4731 seconds
#
# Revision: 1
# Processed by: cddbd v1.5PL3 Copyright (c) Steve Scherf et al.
# Submitted via: dBpowerAMP V4.0
#
DISCID=61127918
DTITLE=Dj Thiago - ForrÓ Arretado
DYEAR=2003
DGENRE=Forró
TTITLE0=Cumbia do Índio - Los Trompetes
TTITLE1=Amor de Rapariga - Flavinho Dos Teclados
TTITLE2=Sou Feio and tô na Moda - Swing Brasil
TTITLE3=Pra Xamegar - Banda Carisma
TTITLE4=Pop Star (Remix) - Guilherme and Santiago
TTITLE5=Libera o Toim - Arriba a Saia
TTITLE6=Melô da Bicicleta - Aviões do Forró
TTITLE7=Um Pouquinho do Seu Amor - Banda Kassicó
TTITLE8=Não Bebe, Não Fuma e Não Foge - Caviar Com Rapadura
TTITLE9=Adoleta - Flavinho Dos Teclados
TTITLE10=Sonho Lindo - Calcinha Preta
TTITLE11=Amor q Fica - Caviar Com Rapadura
TTITLE12=Tô Nem aí - Flavinho Dos Teclados
TTITLE13=Lambada Danzante
TTITLE14=Vem me Amar - Muleca 100 Vergonha
TTITLE15=Tupinambá - Júlio Rego
TTITLE16=Programa de Fim de Semana - Forró Zanzibar
TTITLE17=Morro de Saudade - Luiz Paulo e Pantanal
TTITLE18=Bundinha de Tanajura - Pascolino
TTITLE19=O Meu Corpo Incendeia - Lambada
TTITLE20=Apaixonado Por vc (Remix) - Gino and Geno
TTITLE21=Pout-Porri - Flavinho Dos Teclados
TTITLE22=Farofa de Muié - ed. Markus Romildo
TTITLE23=Zook da Loirinha - Banda Exclusiva
EXTD=Forró Arretado by Franklin W. Danin
EXTT0=
EXTT1=
EXTT2=
EXTT3=
EXTT4=
EXTT5=
EXTT6=
EXTT7=
EXTT8=
EXTT9=
EXTT10=
EXTT11=
EXTT12=
EXTT13=
EXTT14=
EXTT15=
EXTT16=
EXTT17=
EXTT18=
EXTT19=
EXTT20=
EXTT21=
EXTT22=
EXTT23=
PLAYORDER=
